<svg xmlns="http://www.w3.org/2000/svg" xmlns:xlink="http://www.w3.org/1999/xlink" width="500" zoomAndPan="magnify" viewBox="0 0 375 374.999991" height="500" preserveAspectRatio="xMidYMid meet" version="1.2"><defs><clipPath id="53781fab07"><path d="M 11.941406 11.941406 L 362.941406 11.941406 L 362.941406 362.941406 L 11.941406 362.941406 Z M 11.941406 11.941406 "/></clipPath></defs><g id="efc2e7aeee"><g clip-rule="nonzero" clip-path="url(#53781fab07)"><path style=" stroke:none;fill-rule:nonzero;fill:#000000;fill-opacity:1;" d="M 187.441406 362.941406 C 90.671875 362.941406 11.941406 284.207031 11.941406 187.441406 C 11.941406 90.671875 90.671875 11.941406 187.441406 11.941406 C 284.207031 11.941406 362.941406 90.671875 362.941406 187.441406 C 362.941406 284.207031 284.207031 362.941406 187.441406 362.941406 Z M 187.441406 26.148438 C 98.503906 26.148438 26.148438 98.503906 26.148438 187.441406 C 26.148438 276.375 98.503906 348.734375 187.441406 348.734375 C 276.375 348.734375 348.734375 276.375 348.734375 187.441406 C 348.734375 98.503906 276.375 26.148438 187.441406 26.148438 Z M 187.441406 26.148438 "/></g><g style="fill:#000000;fill-opacity:1;"><g transform="translate(61.148438, 206.624986)"><path style="stroke:none" d="M 4.75 -8.328125 L 4.75 -21.78125 L 4.078125 -21.78125 C 2.890625 -21.78125 1.929688 -22.148438 1.203125 -22.890625 C 0.472656 -23.628906 0.109375 -24.601562 0.109375 -25.8125 C 0.109375 -27.03125 0.472656 -28.003906 1.203125 -28.734375 C 1.929688 -29.460938 2.890625 -29.828125 4.078125 -29.828125 L 4.75 -29.828125 L 4.75 -31.421875 C 4.75 -33.242188 5.226562 -34.65625 6.1875 -35.65625 C 7.15625 -36.65625 8.523438 -37.15625 10.296875 -37.15625 C 12.054688 -37.15625 13.414062 -36.65625 14.375 -35.65625 C 15.34375 -34.65625 15.828125 -33.242188 15.828125 -31.421875 L 15.828125 -29.828125 L 17.78125 -29.828125 C 18.96875 -29.828125 19.925781 -29.457031 20.65625 -28.71875 C 21.382812 -27.988281 21.75 -27.019531 21.75 -25.8125 C 21.75 -24.601562 21.382812 -23.628906 20.65625 -22.890625 C 19.925781 -22.148438 18.96875 -21.78125 17.78125 -21.78125 L 15.828125 -21.78125 L 15.828125 -10.78125 C 15.828125 -9.9375 15.96875 -9.335938 16.25 -8.984375 C 16.53125 -8.628906 16.929688 -8.414062 17.453125 -8.34375 L 18.109375 -8.265625 C 19.273438 -8.117188 20.1875 -7.753906 20.84375 -7.171875 C 21.5 -6.585938 21.828125 -5.65625 21.828125 -4.375 C 21.828125 -3.3125 21.460938 -2.425781 20.734375 -1.71875 C 20.003906 -1.007812 19.050781 -0.472656 17.875 -0.109375 C 16.695312 0.253906 15.429688 0.4375 14.078125 0.4375 L 13.84375 0.4375 C 10.84375 0.4375 8.578125 -0.300781 7.046875 -1.78125 C 5.515625 -3.257812 4.75 -5.441406 4.75 -8.328125 Z M 4.75 -8.328125 "/></g></g><g style="fill:#000000;fill-opacity:1;"><g transform="translate(83.790778, 206.624986)"><path style="stroke:none" d="M 7.75 0.671875 C 6.132812 0.671875 4.804688 0.207031 3.765625 -0.71875 C 2.734375 -1.644531 2.21875 -3.085938 2.21875 -5.046875 L 2.21875 -34.046875 C 2.21875 -35.847656 2.6875 -37.234375 3.625 -38.203125 C 4.5625 -39.179688 5.894531 -39.671875 7.625 -39.671875 C 9.351562 -39.671875 10.6875 -39.179688 11.625 -38.203125 C 12.5625 -37.234375 13.03125 -35.835938 13.03125 -34.015625 L 13.03125 -23.96875 L 13.234375 -23.96875 C 13.972656 -26.0625 15.140625 -27.660156 16.734375 -28.765625 C 18.328125 -29.867188 20.257812 -30.421875 22.53125 -30.421875 C 25.882812 -30.421875 28.441406 -29.429688 30.203125 -27.453125 C 31.972656 -25.472656 32.859375 -22.691406 32.859375 -19.109375 L 32.859375 -5.046875 C 32.859375 -3.085938 32.335938 -1.644531 31.296875 -0.71875 C 30.265625 0.207031 28.941406 0.671875 27.328125 0.671875 C 25.703125 0.671875 24.367188 0.207031 23.328125 -0.71875 C 22.296875 -1.644531 21.78125 -3.085938 21.78125 -5.046875 L 21.78125 -16.640625 C 21.78125 -18.140625 21.421875 -19.320312 20.703125 -20.1875 C 19.984375 -21.050781 18.925781 -21.484375 17.53125 -21.484375 C 16.164062 -21.484375 15.117188 -21.023438 14.390625 -20.109375 C 13.660156 -19.203125 13.296875 -18.054688 13.296875 -16.671875 L 13.296875 -5.046875 C 13.296875 -3.085938 12.773438 -1.644531 11.734375 -0.71875 C 10.703125 0.207031 9.375 0.671875 7.75 0.671875 Z M 7.75 0.671875 "/></g></g><g style="fill:#000000;fill-opacity:1;"><g transform="translate(118.618912, 206.624986)"><path style="stroke:none" d="M 16.921875 0.75 C 13.660156 0.75 10.863281 0.132812 8.53125 -1.09375 C 6.207031 -2.332031 4.425781 -4.113281 3.1875 -6.4375 C 1.945312 -8.757812 1.328125 -11.53125 1.328125 -14.75 C 1.328125 -18.007812 1.941406 -20.816406 3.171875 -23.171875 C 4.410156 -25.535156 6.171875 -27.363281 8.453125 -28.65625 C 10.742188 -29.945312 13.445312 -30.59375 16.5625 -30.59375 C 18.875 -30.59375 20.960938 -30.242188 22.828125 -29.546875 C 24.703125 -28.859375 26.304688 -27.882812 27.640625 -26.625 C 28.972656 -25.375 29.992188 -23.898438 30.703125 -22.203125 C 31.421875 -20.515625 31.78125 -18.671875 31.78125 -16.671875 C 31.78125 -15.359375 31.414062 -14.34375 30.6875 -13.625 C 29.957031 -12.914062 28.898438 -12.5625 27.515625 -12.5625 L 12 -12.5625 L 12 -11.859375 C 12 -10.890625 12.210938 -10.023438 12.640625 -9.265625 C 13.078125 -8.515625 13.675781 -7.921875 14.4375 -7.484375 C 15.207031 -7.054688 16.085938 -6.84375 17.078125 -6.84375 C 18.285156 -6.84375 19.363281 -7.039062 20.3125 -7.4375 C 21.269531 -7.832031 22.273438 -8.5 23.328125 -9.4375 C 23.898438 -9.957031 24.4375 -10.316406 24.9375 -10.515625 C 25.445312 -10.710938 26.035156 -10.8125 26.703125 -10.8125 C 27.421875 -10.8125 28.085938 -10.660156 28.703125 -10.359375 C 29.316406 -10.066406 29.8125 -9.640625 30.1875 -9.078125 C 30.5625 -8.515625 30.75 -7.835938 30.75 -7.046875 C 30.75 -6.222656 30.503906 -5.414062 30.015625 -4.625 C 29.347656 -3.519531 28.367188 -2.5625 27.078125 -1.75 C 25.796875 -0.945312 24.289062 -0.332031 22.5625 0.09375 C 20.832031 0.53125 18.953125 0.75 16.921875 0.75 Z M 12.15625 -18.5625 L 21.453125 -18.5625 C 21.367188 -19.894531 20.894531 -20.960938 20.03125 -21.765625 C 19.175781 -22.566406 18.101562 -22.96875 16.8125 -22.96875 C 15.976562 -22.96875 15.222656 -22.773438 14.546875 -22.390625 C 13.867188 -22.015625 13.316406 -21.5 12.890625 -20.84375 C 12.472656 -20.1875 12.226562 -19.425781 12.15625 -18.5625 Z M 12.15625 -18.5625 "/></g></g><g style="fill:#000000;fill-opacity:1;"><g transform="translate(151.690779, 206.624986)"><path style="stroke:none" d=""/></g></g><g style="fill:#000000;fill-opacity:1;"><g transform="translate(162.228383, 206.624986)"><path style="stroke:none" d="M 16.890625 0.75 C 13.660156 0.75 10.882812 0.125 8.5625 -1.125 C 6.238281 -2.375 4.453125 -4.171875 3.203125 -6.515625 C 1.953125 -8.859375 1.328125 -11.664062 1.328125 -14.9375 C 1.328125 -18.1875 1.953125 -20.976562 3.203125 -23.3125 C 4.453125 -25.65625 6.238281 -27.453125 8.5625 -28.703125 C 10.882812 -29.960938 13.640625 -30.59375 16.828125 -30.59375 C 18.941406 -30.59375 20.882812 -30.3125 22.65625 -29.75 C 24.4375 -29.195312 25.976562 -28.398438 27.28125 -27.359375 C 28.582031 -26.328125 29.578125 -25.082031 30.265625 -23.625 C 30.753906 -22.59375 31 -21.628906 31 -20.734375 C 31 -19.867188 30.769531 -19.128906 30.3125 -18.515625 C 29.863281 -17.898438 29.28125 -17.429688 28.5625 -17.109375 C 27.84375 -16.785156 27.066406 -16.625 26.234375 -16.625 C 25.191406 -16.625 24.316406 -16.828125 23.609375 -17.234375 C 22.910156 -17.648438 22.3125 -18.273438 21.8125 -19.109375 C 21.144531 -20.242188 20.445312 -21.066406 19.71875 -21.578125 C 18.988281 -22.085938 18.171875 -22.34375 17.265625 -22.34375 C 14.109375 -22.34375 12.53125 -19.875 12.53125 -14.9375 C 12.53125 -9.96875 14.082031 -7.484375 17.1875 -7.484375 C 18.25 -7.484375 19.128906 -7.742188 19.828125 -8.265625 C 20.535156 -8.785156 21.140625 -9.410156 21.640625 -10.140625 C 22.347656 -11.140625 23.066406 -11.882812 23.796875 -12.375 C 24.523438 -12.863281 25.46875 -13.109375 26.625 -13.109375 C 27.425781 -13.109375 28.175781 -12.941406 28.875 -12.609375 C 29.582031 -12.273438 30.148438 -11.785156 30.578125 -11.140625 C 31.003906 -10.503906 31.21875 -9.738281 31.21875 -8.84375 C 31.21875 -8.40625 31.15625 -7.953125 31.03125 -7.484375 C 30.914062 -7.015625 30.707031 -6.492188 30.40625 -5.921875 C 29.695312 -4.609375 28.660156 -3.445312 27.296875 -2.4375 C 25.941406 -1.425781 24.367188 -0.640625 22.578125 -0.078125 C 20.785156 0.472656 18.890625 0.75 16.890625 0.75 Z M 16.890625 0.75 "/></g></g><g style="fill:#000000;fill-opacity:1;"><g transform="translate(194.78688, 206.624986)"><path style="stroke:none" d="M 7.625 -32.296875 C 6.570312 -32.296875 5.628906 -32.523438 4.796875 -32.984375 C 3.972656 -33.441406 3.316406 -34.066406 2.828125 -34.859375 C 2.347656 -35.648438 2.109375 -36.539062 2.109375 -37.53125 C 2.109375 -38.519531 2.347656 -39.410156 2.828125 -40.203125 C 3.316406 -41.003906 3.972656 -41.632812 4.796875 -42.09375 C 5.628906 -42.550781 6.570312 -42.78125 7.625 -42.78125 C 8.664062 -42.78125 9.597656 -42.550781 10.421875 -42.09375 C 11.253906 -41.632812 11.914062 -41.003906 12.40625 -40.203125 C 12.894531 -39.410156 13.140625 -38.519531 13.140625 -37.53125 C 13.140625 -36.539062 12.894531 -35.648438 12.40625 -34.859375 C 11.914062 -34.066406 11.253906 -33.441406 10.421875 -32.984375 C 9.597656 -32.523438 8.664062 -32.296875 7.625 -32.296875 Z M 7.625 0.671875 C 5.875 0.671875 4.507812 0.171875 3.53125 -0.828125 C 2.5625 -1.828125 2.078125 -3.234375 2.078125 -5.046875 L 2.078125 -24.78125 C 2.078125 -26.601562 2.5625 -28.015625 3.53125 -29.015625 C 4.507812 -30.015625 5.875 -30.515625 7.625 -30.515625 C 9.382812 -30.515625 10.742188 -30.007812 11.703125 -29 C 12.671875 -27.988281 13.15625 -26.570312 13.15625 -24.75 L 13.15625 -5.046875 C 13.15625 -3.234375 12.671875 -1.828125 11.703125 -0.828125 C 10.742188 0.171875 9.382812 0.671875 7.625 0.671875 Z M 7.625 0.671875 "/></g></g><g style="fill:#000000;fill-opacity:1;"><g transform="translate(210.025877, 206.624986)"><path style="stroke:none" d="M 7.625 0.671875 C 5.925781 0.671875 4.578125 0.191406 3.578125 -0.765625 C 2.578125 -1.734375 2.078125 -3.160156 2.078125 -5.046875 L 2.078125 -24.96875 C 2.078125 -26.769531 2.570312 -28.144531 3.5625 -29.09375 C 4.550781 -30.039062 5.859375 -30.515625 7.484375 -30.515625 C 9.035156 -30.515625 10.296875 -30.039062 11.265625 -29.09375 C 12.242188 -28.144531 12.734375 -26.757812 12.734375 -24.9375 L 12.734375 -23.859375 L 12.9375 -23.859375 C 13.300781 -26.003906 13.960938 -27.609375 14.921875 -28.671875 C 15.890625 -29.734375 17.113281 -30.265625 18.59375 -30.265625 C 19.707031 -30.265625 20.609375 -30.003906 21.296875 -29.484375 C 22.410156 -28.671875 22.96875 -27.238281 22.96875 -25.1875 C 22.96875 -23.4375 22.453125 -22.101562 21.421875 -21.1875 C 20.421875 -20.28125 18.890625 -19.785156 16.828125 -19.703125 C 15.835938 -19.660156 15.078125 -19.503906 14.546875 -19.234375 C 14.015625 -18.960938 13.648438 -18.519531 13.453125 -17.90625 C 13.253906 -17.300781 13.15625 -16.445312 13.15625 -15.34375 L 13.15625 -5.046875 C 13.15625 -3.160156 12.660156 -1.734375 11.671875 -0.765625 C 10.679688 0.191406 9.332031 0.671875 7.625 0.671875 Z M 7.625 0.671875 "/></g></g><g style="fill:#000000;fill-opacity:1;"><g transform="translate(232.695168, 206.624986)"><path style="stroke:none" d="M 16.890625 0.75 C 13.660156 0.75 10.882812 0.125 8.5625 -1.125 C 6.238281 -2.375 4.453125 -4.171875 3.203125 -6.515625 C 1.953125 -8.859375 1.328125 -11.664062 1.328125 -14.9375 C 1.328125 -18.1875 1.953125 -20.976562 3.203125 -23.3125 C 4.453125 -25.65625 6.238281 -27.453125 8.5625 -28.703125 C 10.882812 -29.960938 13.640625 -30.59375 16.828125 -30.59375 C 18.941406 -30.59375 20.882812 -30.3125 22.65625 -29.75 C 24.4375 -29.195312 25.976562 -28.398438 27.28125 -27.359375 C 28.582031 -26.328125 29.578125 -25.082031 30.265625 -23.625 C 30.753906 -22.59375 31 -21.628906 31 -20.734375 C 31 -19.867188 30.769531 -19.128906 30.3125 -18.515625 C 29.863281 -17.898438 29.28125 -17.429688 28.5625 -17.109375 C 27.84375 -16.785156 27.066406 -16.625 26.234375 -16.625 C 25.191406 -16.625 24.316406 -16.828125 23.609375 -17.234375 C 22.910156 -17.648438 22.3125 -18.273438 21.8125 -19.109375 C 21.144531 -20.242188 20.445312 -21.066406 19.71875 -21.578125 C 18.988281 -22.085938 18.171875 -22.34375 17.265625 -22.34375 C 14.109375 -22.34375 12.53125 -19.875 12.53125 -14.9375 C 12.53125 -9.96875 14.082031 -7.484375 17.1875 -7.484375 C 18.25 -7.484375 19.128906 -7.742188 19.828125 -8.265625 C 20.535156 -8.785156 21.140625 -9.410156 21.640625 -10.140625 C 22.347656 -11.140625 23.066406 -11.882812 23.796875 -12.375 C 24.523438 -12.863281 25.46875 -13.109375 26.625 -13.109375 C 27.425781 -13.109375 28.175781 -12.941406 28.875 -12.609375 C 29.582031 -12.273438 30.148438 -11.785156 30.578125 -11.140625 C 31.003906 -10.503906 31.21875 -9.738281 31.21875 -8.84375 C 31.21875 -8.40625 31.15625 -7.953125 31.03125 -7.484375 C 30.914062 -7.015625 30.707031 -6.492188 30.40625 -5.921875 C 29.695312 -4.609375 28.660156 -3.445312 27.296875 -2.4375 C 25.941406 -1.425781 24.367188 -0.640625 22.578125 -0.078125 C 20.785156 0.472656 18.890625 0.75 16.890625 0.75 Z M 16.890625 0.75 "/></g></g><g style="fill:#000000;fill-opacity:1;"><g transform="translate(265.253664, 206.624986)"><path style="stroke:none" d="M 7.75 0.671875 C 6.132812 0.671875 4.804688 0.207031 3.765625 -0.71875 C 2.734375 -1.644531 2.21875 -3.085938 2.21875 -5.046875 L 2.21875 -33.9375 C 2.21875 -35.90625 2.734375 -37.351562 3.765625 -38.28125 C 4.804688 -39.207031 6.132812 -39.671875 7.75 -39.671875 C 9.375 -39.671875 10.703125 -39.207031 11.734375 -38.28125 C 12.773438 -37.351562 13.296875 -35.898438 13.296875 -33.921875 L 13.296875 -5.046875 C 13.296875 -3.085938 12.773438 -1.644531 11.734375 -0.71875 C 10.703125 0.207031 9.375 0.671875 7.75 0.671875 Z M 7.75 0.671875 "/></g></g><g style="fill:#000000;fill-opacity:1;"><g transform="translate(280.762857, 206.624986)"><path style="stroke:none" d="M 16.921875 0.75 C 13.660156 0.75 10.863281 0.132812 8.53125 -1.09375 C 6.207031 -2.332031 4.425781 -4.113281 3.1875 -6.4375 C 1.945312 -8.757812 1.328125 -11.53125 1.328125 -14.75 C 1.328125 -18.007812 1.941406 -20.816406 3.171875 -23.171875 C 4.410156 -25.535156 6.171875 -27.363281 8.453125 -28.65625 C 10.742188 -29.945312 13.445312 -30.59375 16.5625 -30.59375 C 18.875 -30.59375 20.960938 -30.242188 22.828125 -29.546875 C 24.703125 -28.859375 26.304688 -27.882812 27.640625 -26.625 C 28.972656 -25.375 29.992188 -23.898438 30.703125 -22.203125 C 31.421875 -20.515625 31.78125 -18.671875 31.78125 -16.671875 C 31.78125 -15.359375 31.414062 -14.34375 30.6875 -13.625 C 29.957031 -12.914062 28.898438 -12.5625 27.515625 -12.5625 L 12 -12.5625 L 12 -11.859375 C 12 -10.890625 12.210938 -10.023438 12.640625 -9.265625 C 13.078125 -8.515625 13.675781 -7.921875 14.4375 -7.484375 C 15.207031 -7.054688 16.085938 -6.84375 17.078125 -6.84375 C 18.285156 -6.84375 19.363281 -7.039062 20.3125 -7.4375 C 21.269531 -7.832031 22.273438 -8.5 23.328125 -9.4375 C 23.898438 -9.957031 24.4375 -10.316406 24.9375 -10.515625 C 25.445312 -10.710938 26.035156 -10.8125 26.703125 -10.8125 C 27.421875 -10.8125 28.085938 -10.660156 28.703125 -10.359375 C 29.316406 -10.066406 29.8125 -9.640625 30.1875 -9.078125 C 30.5625 -8.515625 30.75 -7.835938 30.75 -7.046875 C 30.75 -6.222656 30.503906 -5.414062 30.015625 -4.625 C 29.347656 -3.519531 28.367188 -2.5625 27.078125 -1.75 C 25.796875 -0.945312 24.289062 -0.332031 22.5625 0.09375 C 20.832031 0.53125 18.953125 0.75 16.921875 0.75 Z M 12.15625 -18.5625 L 21.453125 -18.5625 C 21.367188 -19.894531 20.894531 -20.960938 20.03125 -21.765625 C 19.175781 -22.566406 18.101562 -22.96875 16.8125 -22.96875 C 15.976562 -22.96875 15.222656 -22.773438 14.546875 -22.390625 C 13.867188 -22.015625 13.316406 -21.5 12.890625 -20.84375 C 12.472656 -20.1875 12.226562 -19.425781 12.15625 -18.5625 Z M 12.15625 -18.5625 "/></g></g></g></svg>